<?xml version="1.0" encoding="UTF-8"?>
<svg id="_图层_2" data-name="图层 2" xmlns="http://www.w3.org/2000/svg" viewBox="0 0 145.14 31.14">
  <defs>
    <style>
      .cls-1 {
        fill: #37597b;
      }

      .cls-1, .cls-2, .cls-3, .cls-4 {
        stroke-width: 0px;
      }

      .cls-2 {
        fill: #36597b;
      }

      .cls-3 {
        fill: #c8262c;
      }

      .cls-4 {
        fill: #b88b5e;
      }

      .cls-5 {
        fill: none;
        stroke: #b88b5e;
        stroke-miterlimit: 10;
        stroke-width: .25px;
      }
    </style>
  </defs>
  <g id="Layer_1" data-name="Layer 1">
    <rect class="cls-5" x="105.85" y="5.09" width="39.17" height="20.95" rx="1.91" ry="1.91" transform="translate(250.86 31.14) rotate(180)"/>
    <path class="cls-4" d="M140.47,21.19c-.77.58-1.87.43-2.45-.35l1.56-.65,1.62-.67.77-.32c-.32-1.41-1.73-2.29-3.14-1.97-1.41.32-2.29,1.73-1.97,3.14.32,1.41,1.73,2.29,3.14,1.97.83-.19,1.51-.77,1.84-1.55l-.81-.33c-.12.29-.31.54-.56.73ZM138.37,18.4c.77-.58,1.87-.43,2.45.35l-3.13,1.3c-.09-.63.17-1.26.68-1.64ZM136.36,17.17v.87c-.48,0-.87.39-.87.87v3.5h-.87v-3.5c0-.97.78-1.75,1.75-1.75ZM133.74,17.17v3.06c0,1.21-.98,2.19-2.19,2.19s-2.19-.98-2.19-2.19v-3.06h.87v3.06c0,.72.59,1.31,1.31,1.31s1.31-.59,1.31-1.31v-3.06h.87ZM126.74,18.05v4.37h.87v-4.37h.87v-.87h-.87v-.87h-.87v.87h-.87v.87h.87ZM116.69,17.17c-1.45,0-2.62,1.17-2.62,2.62s1.17,2.62,2.62,2.62c.65,0,1.27-.24,1.75-.67v.67h.87v-2.62c0-1.45-1.17-2.62-2.62-2.62ZM116.69,21.55c-.97,0-1.75-.78-1.75-1.75s.78-1.75,1.75-1.75,1.75.78,1.75,1.75-.78,1.75-1.75,1.75ZM124.56,17.84c-1.08-.97-2.74-.87-3.7.21-.43.48-.67,1.1-.67,1.75v3.5h.87v-1.54c1.08.97,2.74.87,3.7-.21.97-1.08.87-2.74-.21-3.7ZM122.81,21.55c-.97,0-1.75-.78-1.75-1.75s.78-1.75,1.75-1.75,1.75.78,1.75,1.75-.78,1.75-1.75,1.75ZM112.99,20.91l.62.62c-1.2,1.2-3.13,1.2-4.33,0-1.2-1.19-1.2-3.13,0-4.33,1.2-1.2,3.13-1.2,4.33,0l-.62.62c-.85-.85-2.24-.85-3.09,0-.85.85-.85,2.24,0,3.09s2.24.85,3.09,0Z"/>
    <path class="cls-4" d="M123.85,8.62h.87v-.87h-.87v.87ZM136.09,10.81v3.06h-.87v-3.06c0-.72-.59-1.31-1.31-1.31s-1.31.59-1.31,1.31v3.06h-.87v-3.06c0-1.21.98-2.19,2.19-2.19s2.19.98,2.19,2.19ZM123.85,9.5h.87v4.37h-.87v-4.37ZM130.85,11.24c0,1.45-1.17,2.62-2.62,2.62s-2.62-1.17-2.62-2.62,1.17-2.62,2.62-2.62,2.62,1.17,2.62,2.62ZM129.97,11.24c0-.97-.78-1.75-1.75-1.75s-1.75.78-1.75,1.75.78,1.75,1.75,1.75,1.75-.78,1.75-1.75ZM120.35,9.5v-.87h.87v-.87h.87v.87h.87v.87h-.87v4.37h-.87v-4.37h-.87ZM119.92,11.24c0,1.45-1.17,2.62-2.62,2.62s-2.62-1.17-2.62-2.62,1.17-2.62,2.62-2.62,2.62,1.17,2.62,2.62ZM119.04,11.24c0-.97-.78-1.75-1.75-1.75s-1.75.78-1.75,1.75.78,1.75,1.75,1.75,1.75-.78,1.75-1.75ZM111.17,11.61l1.75-1.75v4.01h.87v-6.12l-2.62,2.62-2.62-2.62v6.12h.87v-4.01l1.75,1.75Z"/>
    <g>
      <path class="cls-1" d="M90.62,20.65c.81.97,2.31.97,3.12,0l4.12-9.95c-.46-.72-1.31-1.07-2.15-.89-1.18,2.84-2.36,5.69-3.54,8.53-1.18-2.84-2.36-5.69-3.54-8.53-.83-.18-1.69.17-2.15.89l4.12,9.95Z"/>
      <path class="cls-2" d="M46.02,10.13v7.48c-2.32-2.49-4.65-4.99-6.97-7.48-.7-.49-1.62-.49-2.32,0v10.88c.7.49,1.63.49,2.32,0v-7.48c2.32,2.49,4.65,4.98,6.97,7.48.7.49,1.62.49,2.32,0v-10.88c-.7-.49-1.62-.49-2.32,0"/>
      <path class="cls-2" d="M63.45,21.01c.7.49,1.62.49,2.32,0v-1.96c.62-.61,1.23-1.23,1.84-1.84,1.39,1.39,2.78,2.78,4.16,4.16.84-.15,1.49-.81,1.64-1.64-1.39-1.39-2.78-2.78-4.17-4.16,1.39-1.39,2.78-2.78,4.17-4.16-.15-.84-.81-1.49-1.64-1.64l-6.01,6.01v-5.64c-.7-.49-1.62-.49-2.32,0v10.88Z"/>
      <path class="cls-2" d="M80.17,21.37c-3.21,0-5.81-2.6-5.81-5.81s2.6-5.81,5.81-5.81,5.81,2.6,5.81,5.81-2.6,5.81-5.81,5.81M83.65,15.57c0-1.92-1.56-3.48-3.49-3.48s-3.49,1.56-3.49,3.48,1.56,3.48,3.49,3.48,3.49-1.56,3.49-3.48"/>
      <path class="cls-3" d="M54.25,13.93c.79-.79.79-2.08,0-2.87-.79-.79-2.08-.79-2.87,0-.79.79-.79,2.08,0,2.87.79.79,2.08.79,2.87,0"/>
      <path class="cls-2" d="M52.48,16.25c.54,2.73,3.91,3.75,5.88,1.78,1.97-1.97.95-5.34-1.78-5.88-.09-.98-.43-1.69-1.13-2.37,5.38-.42,8.38,6.08,4.56,9.9-3.82,3.81-10.32.82-9.9-4.56.68.71,1.39,1.04,2.37,1.13"/>
      <path class="cls-3" d="M19.85,15.57c0-2.36-1.91-4.27-4.28-4.27s-4.27,1.91-4.27,4.27,1.91,4.27,4.27,4.27,4.28-1.91,4.28-4.27"/>
      <path class="cls-3" d="M22.9,15.57c0,4.04-3.28,7.32-7.33,7.32s-7.33-3.28-7.33-7.32,3.28-7.32,7.33-7.32,7.33,3.28,7.33,7.32M31.14,2.46c-.32-1.2-1.26-2.14-2.46-2.46C21.32,6.93,9.83,6.93,2.46,0,1.26.32.32,1.26,0,2.46c6.93,7.37,6.93,18.85,0,26.22.32,1.2,1.26,2.14,2.46,2.46,7.37-6.93,18.86-6.93,26.23,0,1.2-.32,2.14-1.26,2.46-2.46-6.93-7.37-6.93-18.85,0-26.22"/>
    </g>
  </g>
</svg>